:SAMPLES-PER-SECOND 30
:FULLY-SPECIFIED
:DEGREES
33
root  65.9981 38.7247 18.1836 -55.0862 -85.2956 56.8523
RightUpLeg  14.1066 -10.3406 -7.67475
RightLeg  8.23948 -2.81366 4.08803
RightFoot  -20.4881 0.0643645 2.53934
RightToes  -1.16417e-010 0 -3.6325e-017
Spine  4.50539 1.77696 6.92059
Spine1  9.47212 4.06865 -7.68788
HEad  -11.1356 -5.50885 -6.46841
LeftShoulder1  7.29042 -10.5548 -45.1829
LeftArm  -15.3918 27.8434 -27.262
LeftForeArm  20.5428 -16.0586 -3.37413
LeftHand  -0.244104 0.0205437 5.32207
RightShoulder  6.14745 9.60831 40.7049
RightArm  -6.60906 -2.04304 33.5489
RightForeArm  -3.60826 33.9415 7.77606
RightHand  -0.219222 -3.40703 -12.2178
LeftUpLeg  -27.4405 4.82942 -3.6863
LeftLeg  7.2715 13.8824 -3.22888
LeftFoot  -0.242457 0.270156 -2.76321
LeftToes  5.72949e-011 -1.2716e-010 -5.73128e-012
34
root  64.7962 38.4782 18.3362 -56.0983 -85.5507 57.6889
RightUpLeg  15.7763 -11.0144 -8.48839
RightLeg  9.47435 -1.16922 3.99015
RightFoot  -20.6529 0.166927 3.76757
RightToes  -1.16417e-010 0 -3.6325e-017
Spine  4.70355 2.08772 7.58093
Spine1  9.39496 4.70383 -8.73921
HEad  -11.8327 -5.62864 -6.3631
LeftShoulder1  7.2296 -10.5827 -44.6981
LeftArm  -14.7399 27.8447 -26.8352
LeftForeArm  20.5303 -18.2836 -3.47234
LeftHand  -0.244104 0.0205437 5.32207
RightShoulder  6.22671 9.77461 40.7145
RightArm  -6.78921 -0.311194 33.8858
RightForeArm  -3.40955 35.1738 8.113
RightHand  -0.277581 -2.95105 -12.7231
LeftUpLeg  -27.965 6.9126 -5.12066
LeftLeg  9.0391 12.6353 -2.19866
LeftFoot  -0.550733 0.221395 -2.30094
LeftToes  5.72949e-011 -1.2716e-010 -5.73128e-012
35
root  63.4216 38.2645 18.5513 -66.3604 -85.8165 67.7561
RightUpLeg  17.2513 -12.3966 -10.1521
RightLeg  11.5803 2.01321 3.56358
RightFoot  -20.1645 0.271596 5.2763
RightToes  -1.16417e-010 0 -3.6325e-017
Spine  4.27329 2.58769 7.89001
Spine1  9.79323 5.58115 -9.86969
HEad  -12.4014 -5.4637 -6.11773
LeftShoulder1  7.17314 -10.5323 -44.4993
LeftArm  -14.4434 27.6782 -26.2568
LeftForeArm  20.8967 -19.4744 -3.50477
LeftHand  -0.244104 0.0205437 5.32207
RightShoulder  6.2039 9.83156 40.3634
RightArm  -5.4466 0.82698 34.5566
RightForeArm  -4.08276 35.278 8.1813
RightHand  -0.522862 -1.14444 -14.1913
LeftUpLeg  -27.9142 9.98693 -7.38791
LeftLeg  11.7362 10.0186 -0.609021
LeftFoot  0.539647 0.00080583 -0.102183
LeftToes  5.72949e-011 -1.2716e-010 -5.73128e-012
36
root  61.9405 38.1046 18.7781 -81.0347 -85.4858 82.0708
RightUpLeg  18.4697 -13.7178 -12.4854
RightLeg  14.4886 5.95418 2.91054
RightFoot  -19.0465 0.454347 8.67982
RightToes  -1.16417e-010 0 -3.6325e-017
Spine  3.93364 3.04403 6.79384
Spine1  9.87238 6.1617 -10.3077
HEad  -12.5118 -4.89053 -5.83536
LeftShoulder1  7.14945 -10.4098 -44.7528
LeftArm  -14.433 27.553 -25.4695
LeftForeArm  21.2399 -19.37 -3.47267
LeftHand  -0.244104 0.0205437 5.32207
RightShoulder  6.14383 9.79137 40.0696
RightArm  -2.40875 1.3861 35.2949
RightForeArm  -3.63941 33.7689 7.73249
RightHand  -0.897647 1.32654 -15.6149
LeftUpLeg  -27.4948 12.7538 -9.83055
LeftLeg  14.7598 7.41335 0.956426
LeftFoot  2.84284 -0.411291 3.16726
LeftToes  5.72949e-011 -1.2716e-010 -5.73128e-012
37
root  60.4419 38.0452 19.0022 -86.0214 -84.6774 86.3992
RightUpLeg  18.3129 -12.504 -13.9089
RightLeg  19.6774 6.88434 2.40566
RightFoot  -15.9171 0.415675 13.5095
RightToes  -1.16417e-010 0 -3.6325e-017
Spine  4.20585 3.11592 4.77771
Spine1  9.26687 6.04088 -9.99553
HEad  -12.234 -4.22602 -5.63224
LeftShoulder1  7.25342 -10.4154 -45.4092
LeftArm  -14.1595 27.1049 -24.5871
LeftForeArm  21.0282 -18.0268 -3.45933
LeftHand  -0.244104 0.0205437 5.32207
RightShoulder  6.15288 9.76906 40.2074
RightArm  1.2768 1.25081 35.945
RightForeArm  -2.33942 30.7837 6.86712
RightHand  -1.19708 3.08871 -16.537
LeftUpLeg  -26.6278 13.7847 -11.5859
LeftLeg  18.0954 6.08813 2.42317
LeftFoot  3.65362 -0.728112 5.39113
LeftToes  5.72949e-011 -1.2716e-010 -5.73128e-012
38
root  58.9908 38.1324 19.2412 -85.0293 -84.0594 84.5466
RightUpLeg  15.2978 -8.23802 -13.6217
RightLeg  28.823 3.74729 1.96221
RightFoot  -8.11677 -0.497905 16.1687
RightToes  -1.16417e-010 0 -3.6325e-017
Spine  4.97349 2.90538 3.21788
Spine1  8.38316 5.61224 -9.63843
HEad  -11.9557 -3.73707 -5.63643
LeftShoulder1  7.4858 -10.6627 -46.0711
LeftArm  -13.6801 25.6403 -24.065
LeftForeArm  20.5026 -15.2865 -3.60485
LeftHand  -0.244104 0.0205437 5.32207
RightShoulder  6.28207 9.88211 40.7481
RightArm  4.72155 0.308468 36.4353
RightForeArm  -2.33964 27.096 5.94366
RightHand  -1.27657 3.42793 -16.9494
LeftUpLeg  -24.6563 12.239 -11.6674
LeftLeg  20.9748 7.43673 3.48986
LeftFoot  1.41346 -0.652285 5.7312
LeftToes  5.72949e-011 -1.2716e-010 -5.73128e-012
39
root  57.6574 38.2867 19.4746 -88.9398 -83.5614 87.6304
RightUpLeg  9.5426 -4.00363 -13.0698
RightLeg  40.4335 1.5646 1.18658
RightFoot  3.61437 -1.81369 14.2143
RightToes  -1.16417e-010 0 -3.6325e-017
Spine  5.85933 2.83549 2.0597
Spine1  7.81977 5.4075 -9.5618
HEad  -11.8419 -3.16681 -5.95348
LeftShoulder1  7.70592 -10.9825 -46.3913
LeftArm  -13.4911 23.1348 -24.3504
LeftForeArm  20.4824 -11.6121 -3.90279
LeftHand  -0.244104 0.0205437 5.32207
RightShoulder  6.46719 10.0813 41.383
RightArm  8.22602 -1.16716 36.7646
RightForeArm  -4.30372 23.5371 5.34209
RightHand  -1.15143 2.60996 -16.8238
LeftUpLeg  -22.0028 11.6599 -11.7075
LeftLeg  22.5454 8.42231 4.15344
LeftFoot  -2.25288 -0.389613 5.05885
LeftToes  5.72949e-011 -1.2716e-010 -5.73128e-012
40
root  56.4347 38.4124 19.6668 -97.3786 -82.9754 95.4065
RightUpLeg  2.66192 -0.0836791 -12.6347
RightLeg  51.0847 0.999931 0.985685
RightFoot  12.3095 -1.91623 9.47712
RightToes  -1.16417e-010 0 -3.6325e-017
Spine  6.50923 2.91996 0.376607
Spine1  7.80943 5.16152 -9.11763
HEad  -11.7955 -2.09536 -6.60196
LeftShoulder1  7.84285 -11.1754 -46.6014
LeftArm  -13.1327 20.2651 -25.2264
LeftForeArm  20.9779 -8.54523 -4.15453
LeftHand  -0.244104 0.0205437 5.32207
RightShoulder  6.57818 10.1817 41.8154
RightArm  11.298 -2.68266 36.9928
RightForeArm  -5.2397 20.4786 5.60543
RightHand  -1.00672 1.72266 -16.525
LeftUpLeg  -19.3212 12.4801 -11.9659
LeftLeg  23.1521 8.59725 4.35277
LeftFoot  -5.17133 -0.203558 4.37187
LeftToes  5.72949e-011 -1.2716e-010 -5.73128e-012
